HIERARCHY
ROOT Hips
{
	OFFSET	0.00	0.00	0.00
	CHANNELS 6 Xposition Yposition Zposition Zrotation Xrotation Yrotation
	JOINT LeftUpperLeg
	{
		OFFSET	-0.060319	 0.002079	 0.072983
		CHANNELS 3 Zrotation Xrotation Yrotation
		JOINT LeftLowerLeg
		{
			OFFSET	 0.351798	-0.008011	 0.005146
			CHANNELS 3 Zrotation Xrotation Yrotation
			JOINT LeftFoot
			{
				OFFSET	 0.378666	 0.003828	-0.003777
				CHANNELS 3 Zrotation Xrotation Yrotation
				JOINT LeftToes
				{
					OFFSET	 0.084296	 0.047710	-0.003922
					CHANNELS 3 Zrotation Xrotation Yrotation
					End Site
					{
						OFFSET	 0.084296	 0.047710	-0.003922
					}
				}
			}
		}
	}
	JOINT RightUpperLeg
	{
		OFFSET	-0.060836	 0.002079	-0.072553
		CHANNELS 3 Zrotation Xrotation Yrotation
		JOINT RightLowerLeg
		{
			OFFSET	 0.351364	-0.008011	-0.018234
			CHANNELS 3 Zrotation Xrotation Yrotation
			JOINT RightFoot
			{
				OFFSET	 0.378545	 0.003824	-0.010315
				CHANNELS 3 Zrotation Xrotation Yrotation
				JOINT RightToes
				{
					OFFSET	 0.084392	 0.047660	 0.002026
					CHANNELS 3 Zrotation Xrotation Yrotation
					End Site
					{
						OFFSET	 0.084392	 0.047660	 0.002026
					}
				}
			}
		}
	}
	JOINT Character1_Spine
	{
		OFFSET	 0.022713	 0.008182	-0.000081
		CHANNELS 3 Zrotation Xrotation Yrotation
		JOINT Spine
		{
			OFFSET	 0.091343	 0.001755	-0.000000
			CHANNELS 3 Zrotation Xrotation Yrotation
			JOINT Chest
			{
				OFFSET	 0.087667	-0.000304	-0.000000
				CHANNELS 3 Zrotation Xrotation Yrotation
				JOINT LeftShoulder
				{
					OFFSET	 0.122367	-0.001395	 0.042227
					CHANNELS 3 Zrotation Xrotation Yrotation
					JOINT LeftUpperArm
					{
						OFFSET	 0.055437	-0.000000	 0.000001
						CHANNELS 3 Zrotation Xrotation Yrotation
						JOINT LeftLowerArm
						{
							OFFSET	 0.233777	 0.000017	 0.000012
							CHANNELS 3 Zrotation Xrotation Yrotation
							JOINT LeftHand
							{
								OFFSET	 0.162482	-0.000001	 0.000000
								CHANNELS 3 Zrotation Xrotation Yrotation
								JOINT LeftIndexProximal
								{
									OFFSET	 0.080749	 0.025713	-0.001428
									CHANNELS 3 Zrotation Xrotation Yrotation
									JOINT LeftIndexIntermediate
									{
										OFFSET	 0.024260	 0.002507	-0.001187
										CHANNELS 3 Zrotation Xrotation Yrotation
										JOINT LeftIndexDistal
										{
											OFFSET	 0.016097	 0.000118	-0.000458
											CHANNELS 3 Zrotation Xrotation Yrotation
											End Site
											{
												OFFSET	 0.016097	 0.000118	-0.000458
											}
										}
									}
								}
								JOINT LeftMiddleProximal
								{
									OFFSET	 0.080696	 0.005822	-0.006021
									CHANNELS 3 Zrotation Xrotation Yrotation
									JOINT LeftMiddleIntermediate
									{
										OFFSET	 0.025063	 0.001482	 0.003794
										CHANNELS 3 Zrotation Xrotation Yrotation
										JOINT LeftMiddleDistal
										{
											OFFSET	 0.019431	-0.000068	 0.000162
											CHANNELS 3 Zrotation Xrotation Yrotation
											End Site
											{
												OFFSET	 0.019431	-0.000068	 0.000162
											}
										}
									}
								}
								JOINT LeftLittleProximal
								{
									OFFSET	 0.065753	-0.027836	-0.002284
									CHANNELS 3 Zrotation Xrotation Yrotation
									JOINT LeftLittleIntermediate
									{
										OFFSET	 0.018097	 0.000133	-0.000014
										CHANNELS 3 Zrotation Xrotation Yrotation
										JOINT LeftLittleDistal
										{
											OFFSET	 0.013911	 0.000003	 0.000248
											CHANNELS 3 Zrotation Xrotation Yrotation
											End Site
											{
												OFFSET	 0.013911	 0.000003	 0.000248
											}
										}
									}
								}
								JOINT LeftRingProximal
								{
									OFFSET	 0.076793	-0.012626	-0.006246
									CHANNELS 3 Zrotation Xrotation Yrotation
									JOINT LeftRingIntermediate
									{
										OFFSET	 0.023683	-0.000754	 0.001098
										CHANNELS 3 Zrotation Xrotation Yrotation
										JOINT LeftRingDistal
										{
											OFFSET	 0.015907	 0.000167	-0.000861
											CHANNELS 3 Zrotation Xrotation Yrotation
											End Site
											{
												OFFSET	 0.015907	 0.000167	-0.000861
											}
										}
									}
								}
								JOINT LeftThumbProximal
								{
									OFFSET	 0.024761	 0.018266	 0.014236
									CHANNELS 3 Zrotation Xrotation Yrotation
									JOINT LeftThumbIntermediate
									{
										OFFSET	 0.032146	 0.001986	 0.001523
										CHANNELS 3 Zrotation Xrotation Yrotation
										JOINT LeftThumbDistal
										{
											OFFSET	 0.017566	-0.001003	 0.000085
											CHANNELS 3 Zrotation Xrotation Yrotation
											End Site
											{
												OFFSET	 0.017566	-0.001003	 0.000085
											}
										}
									}
								}
							}
						}
					}
				}
				JOINT Neck
				{
					OFFSET	 0.156851	 0.008298	 0.000287
					CHANNELS 3 Zrotation Xrotation Yrotation
					JOINT Head
					{
						OFFSET	 0.078083	-0.005535	-0.000000
						CHANNELS 3 Zrotation Xrotation Yrotation
						End Site
						{
							OFFSET	 0.078083	-0.005535	-0.000000
						}
					}
				}
				JOINT RightShoulder
				{
					OFFSET	 0.122455	-0.000150	-0.041994
					CHANNELS 3 Zrotation Xrotation Yrotation
					JOINT RightUpperArm
					{
						OFFSET	 0.055437	 0.000000	-0.000001
						CHANNELS 3 Zrotation Xrotation Yrotation
						JOINT RightLowerArm
						{
							OFFSET	 0.233779	 0.000017	-0.000013
							CHANNELS 3 Zrotation Xrotation Yrotation
							JOINT RightHand
							{
								OFFSET	 0.162480	-0.000001	 0.000002
								CHANNELS 3 Zrotation Xrotation Yrotation
								JOINT RightIndexProximal
								{
									OFFSET	 0.077459	 0.024774	 0.023877
									CHANNELS 3 Zrotation Xrotation Yrotation
									JOINT RightIndexIntermediate
									{
										OFFSET	 0.024233	-0.002230	-0.002009
										CHANNELS 3 Zrotation Xrotation Yrotation
										JOINT RightIndexDistal
										{
											OFFSET	 0.015886	 0.000001	-0.002642
											CHANNELS 3 Zrotation Xrotation Yrotation
											End Site
											{
												OFFSET	 0.015886	 0.000001	-0.002642
											}
										}
									}
								}
								JOINT RightMiddleProximal
								{
									OFFSET	 0.077341	 0.004360	 0.024111
									CHANNELS 3 Zrotation Xrotation Yrotation
									JOINT RightMiddleIntermediate
									{
										OFFSET	 0.025355	-0.000680	 0.001169
										CHANNELS 3 Zrotation Xrotation Yrotation
										JOINT RightMiddleDistal
										{
											OFFSET	 0.019416	-0.000417	-0.000705
											CHANNELS 3 Zrotation Xrotation Yrotation
											End Site
											{
												OFFSET	 0.019416	-0.000417	-0.000705
											}
										}
									}
								}
								JOINT RightLittleProximal
								{
									OFFSET	 0.065019	-0.027722	 0.010366
									CHANNELS 3 Zrotation Xrotation Yrotation
									JOINT RightLittleIntermediate
									{
										OFFSET	 0.018098	-0.000144	-0.000053
										CHANNELS 3 Zrotation Xrotation Yrotation
										JOINT RightLittleDistal
										{
											OFFSET	 0.013886	 0.000267	 0.000828
											CHANNELS 3 Zrotation Xrotation Yrotation
											End Site
											{
												OFFSET	 0.013886	 0.000267	 0.000828
											}
										}
									}
								}
								JOINT RightRingProximal
								{
									OFFSET	 0.074304	-0.013711	 0.019656
									CHANNELS 3 Zrotation Xrotation Yrotation
									JOINT RightRingIntermediate
									{
										OFFSET	 0.023458	-0.000008	-0.003508
										CHANNELS 3 Zrotation Xrotation Yrotation
										JOINT RightRingDistal
										{
											OFFSET	 0.015894	-0.001033	 0.000378
											CHANNELS 3 Zrotation Xrotation Yrotation
											End Site
											{
												OFFSET	 0.015894	-0.001033	 0.000378
											}
										}
									}
								}
								JOINT RightThumbProximal
								{
									OFFSET	 0.026339	 0.020861	-0.004527
									CHANNELS 3 Zrotation Xrotation Yrotation
									JOINT RightThumbIntermediate
									{
										OFFSET	 0.032030	 0.001128	 0.000602
										CHANNELS 3 Zrotation Xrotation Yrotation
										JOINT RightThumbDistal
										{
											OFFSET	 0.017586	 0.000511	 0.000152
											CHANNELS 3 Zrotation Xrotation Yrotation
											End Site
											{
												OFFSET	 0.017586	 0.000511	 0.000152
											}
										}
									}
								}
							}
						}
					}
				}
			}
		}
	}
}
MOTION
Frames:    6
Frame Time: 0.142857142
 0.050404	 0.954755	-0.584787	 174.035200	-76.498440	 83.663390	-21.315040	-0.163901	-178.229700	-44.917910	-2.671851	 5.848775	 42.063560	-0.862411	-3.926648	 62.519460	-3.188659	 0.006148	-20.911050	-1.833256	-178.163100	-21.848430	-1.204478	 2.730473	 44.658700	 8.232236	-3.030798	 62.519680	-0.000152	 0.006819	 4.902136	 0.017393	 0.202796	-3.511662	 0.145319	 2.476768	-17.352180	-0.847073	 0.059906	 18.089590	 0.786613	-90.318680	 2.749508	-2.328763	-44.798270	 93.872320	-1.355865	-47.305470	-11.734750	-29.230120	-5.458705	 0.400901	 11.965310	-4.748454	 0.477874	 0.266074	 1.215439	-0.546671	 0.281770	 7.091043	-6.028159	 6.440647	 2.122423	 1.345341	-3.951414	-7.945199	-1.888770	-2.723091	 6.121307	-24.889980	-9.392361	-17.565870	-2.647219	 2.127349	 1.980443	 0.159782	-1.149520	 1.319157	-14.969960	-7.591256	-10.839200	-0.178069	 2.674636	-6.625014	 0.386537	-3.212840	 3.918352	 164.427200	 55.870460	-127.805100	 6.634563	-0.414953	-3.399435	-4.256975	 0.117892	-1.694328	 25.308050	 0.928401	 0.702014	-6.813783	-1.033595	-0.226618	 18.089590	 0.786612	 89.678790	 31.845060	 54.291270	 52.818330	 109.934300	-1.113449	 2.245093	 15.027240	 13.773030	 24.358650	-177.389600	-8.831868	-175.013600	-0.016568	-3.219298	-3.883214	 0.855641	-4.408458	 1.686657	 177.319100	-9.036760	-172.642800	 1.241053	-1.979778	-4.426968	-0.113596	 0.528879	-4.788302	 158.169100	-26.491550	 168.876600	 1.386256	 2.855342	 4.611974	 0.094532	 2.019469	-1.637273	 166.453600	-25.945450	 166.554900	 2.005292	-2.321953	 9.005940	-2.970803	-0.971437	-2.537858	 7.912983	 55.262230	 25.182600	 0.027068	 3.778531	-1.271253	 1.596345	-1.114234	-1.334432
 0.057947	 0.963221	-0.586488	-173.579800	-81.262680	 96.291370	-12.356030	-0.172623	-177.331100	-57.008360	 0.155646	-0.348094	 24.718880	 8.363842	-7.718561	 62.519460	-3.188659	 0.006148	-15.391770	-1.909161	-175.762500	-22.283640	-1.195565	 1.452413	 43.697630	 6.958728	-1.650123	 62.519680	-0.000152	 0.006819	 4.902136	 0.017393	 0.202796	-0.896151	 0.328910	 3.141368	-17.352180	-0.847073	 0.059906	 18.089590	 0.786613	-90.318680	-3.012311	 1.913115	-46.639130	 92.938540	-0.929466	-56.324010	-18.864610	-31.328920	-5.033943	 0.400901	 11.965310	-4.748454	 0.477874	 0.266074	 1.215439	-0.546671	 0.281770	 7.091043	-6.028159	 6.440647	 2.122423	 1.345341	-3.951414	-7.945199	-1.888770	-2.723091	 6.121307	-24.889980	-9.392361	-17.565870	-2.647219	 2.127349	 1.980443	 0.159782	-1.149520	 1.319157	-14.969960	-7.591256	-10.839200	-0.178069	 2.674636	-6.625014	 0.386537	-3.212840	 3.918352	 164.427200	 55.870460	-127.805100	 6.634563	-0.414953	-3.399435	-4.256975	 0.117892	-1.694328	 24.421590	 0.622367	-1.079489	-7.637563	 3.174722	-1.315309	 18.089590	 0.786612	 89.678790	 25.135360	 56.985240	 60.749930	 112.130800	 1.658999	 8.802893	 15.566780	 11.743870	 24.925770	-177.389600	-8.831868	-175.013600	-0.016568	-3.219298	-3.883214	 0.855641	-4.408458	 1.686657	 177.319100	-9.036760	-172.642800	 1.241053	-1.979778	-4.426968	-0.113596	 0.528879	-4.788302	 158.169100	-26.491550	 168.876600	 1.386256	 2.855342	 4.611974	 0.094532	 2.019469	-1.637273	 166.453600	-25.945450	 166.554900	 2.005292	-2.321953	 9.005940	-2.970803	-0.971437	-2.537858	 7.912983	 55.262230	 25.182600	 0.027068	 3.778531	-1.271253	 1.596345	-1.114234	-1.334432
 0.062300	 0.946088	-0.591914	-155.174600	-82.361390	 114.817000	-9.952697	 0.079336	-178.565700	-64.041680	 10.069420	-6.996554	 16.643650	-7.800129	-1.470793	 62.519460	-3.188659	 0.006148	-12.145060	-1.844670	-173.778600	-23.335550	-1.158272	 0.946772	 44.456330	 10.015540	-4.675988	 62.519680	-0.000152	 0.006819	 4.902136	 0.017393	 0.202796	 1.116928	 0.431778	 3.075370	-17.352180	-0.847073	 0.059906	 18.089590	 0.786613	-90.318680	-3.717482	 0.690074	-49.964660	 89.847960	 4.449517	-62.364780	-16.258510	-28.815600	-6.370637	 0.400901	 11.965310	-4.748454	 0.477874	 0.266074	 1.215439	-0.546671	 0.281770	 7.091043	-6.028159	 6.440647	 2.122423	 1.345341	-3.951414	-7.945199	-1.888770	-2.723091	 6.121307	-24.889980	-9.392361	-17.565870	-2.647219	 2.127349	 1.980443	 0.159782	-1.149520	 1.319157	-14.969960	-7.591256	-10.839200	-0.178069	 2.674636	-6.625014	 0.386537	-3.212840	 3.918352	 164.427200	 55.870460	-127.805100	 6.634563	-0.414953	-3.399435	-4.256975	 0.117892	-1.694328	 24.264440	 0.507125	-1.453467	-6.932513	 5.942427	-2.366003	 18.089590	 0.786612	 89.678790	 21.091030	 57.455590	 64.988690	 115.130900	 3.615208	 11.724160	 22.608880	 11.214020	 24.982730	-177.389600	-8.831868	-175.013600	-0.016568	-3.219298	-3.883214	 0.855641	-4.408458	 1.686657	 177.319100	-9.036760	-172.642800	 1.241053	-1.979778	-4.426968	-0.113596	 0.528879	-4.788302	 158.169100	-26.491550	 168.876600	 1.386256	 2.855342	 4.611974	 0.094532	 2.019469	-1.637273	 166.453600	-25.945450	 166.554900	 2.005292	-2.321953	 9.005940	-2.970803	-0.971437	-2.537858	 7.912983	 55.262230	 25.182600	 0.027068	 3.778531	-1.271253	 1.596345	-1.114234	-1.334432
 0.060278	 0.924138	-0.587435	-142.158800	-79.662580	 128.092800	-17.909980	 1.060548	 177.701800	-77.622580	 7.044731	-3.953190	 10.175970	-7.702953	-2.198797	 62.519460	-3.188659	 0.006148	-8.976402	-1.264971	-174.210300	-17.913320	-1.320879	 3.221929	 39.259330	 14.621190	-6.978368	 62.519680	-0.000152	 0.006819	 4.902136	 0.017393	 0.202796	 0.698482	 0.442694	 3.329118	-17.352180	-0.847073	 0.059906	 18.089590	 0.786613	-90.318680	-3.189754	-1.752955	-51.045410	 87.589830	 8.429068	-61.339820	-19.654380	-27.272170	-15.999890	 0.400901	 11.965310	-4.748454	 0.477874	 0.266074	 1.215439	-0.546671	 0.281770	 7.091043	-6.028159	 6.440647	 2.122423	 1.345341	-3.951414	-7.945199	-1.888770	-2.723091	 6.121307	-24.889980	-9.392361	-17.565870	-2.647219	 2.127349	 1.980443	 0.159782	-1.149520	 1.319157	-14.969960	-7.591256	-10.839200	-0.178069	 2.674636	-6.625014	 0.386537	-3.212840	 3.918352	 164.427200	 55.870460	-127.805100	 6.634563	-0.414953	-3.399435	-4.256975	 0.117892	-1.694328	 22.616260	 0.558488	-1.231578	-4.346007	 8.067725	-5.499172	 18.089590	 0.786612	 89.678790	 15.771900	 60.121700	 71.747340	 116.717600	 5.533786	 14.593220	 23.085940	 3.338142	 24.636380	-177.389600	-8.831868	-175.013600	-0.016568	-3.219298	-3.883214	 0.855641	-4.408458	 1.686657	 177.319100	-9.036760	-172.642800	 1.241053	-1.979778	-4.426968	-0.113596	 0.528879	-4.788302	 158.169100	-26.491550	 168.876600	 1.386256	 2.855342	 4.611974	 0.094532	 2.019469	-1.637273	 166.453600	-25.945450	 166.554900	 2.005292	-2.321953	 9.005940	-2.970803	-0.971437	-2.537858	 7.912983	 55.262230	 25.182600	 0.027068	 3.778531	-1.271253	 1.596345	-1.114234	-1.334432
 0.054163	 0.903691	-0.587057	-144.598400	-73.385650	 126.359600	-31.037030	 3.365961	 175.101800	-72.791230	-5.620805	 6.035515	 20.119600	 13.002130	-8.397520	 62.519460	-3.188659	 0.006148	-12.967090	-1.681316	-175.290300	-19.018590	-1.384785	 4.022141	 41.541520	 18.437610	-10.902840	 62.519680	-0.000152	 0.006819	 4.902136	 0.017393	 0.202796	-5.351434	 0.121174	 4.568738	-17.352180	-0.847073	 0.059906	 18.089590	 0.786613	-90.318680	 0.574944	-5.968133	-50.020490	 86.005910	 8.587647	-53.268180	-24.151290	-22.528600	-30.630760	 0.400901	 11.965310	-4.748454	 0.477874	 0.266074	 1.215439	-0.546671	 0.281770	 7.091043	-6.028159	 6.440647	 2.122423	 1.345341	-3.951414	-7.945199	-1.888770	-2.723091	 6.121307	-24.889980	-9.392361	-17.565870	-2.647219	 2.127349	 1.980443	 0.159782	-1.149520	 1.319157	-14.969960	-7.591256	-10.839200	-0.178069	 2.674636	-6.625014	 0.386537	-3.212840	 3.918352	 164.427200	 55.870460	-127.805100	 6.634563	-0.414953	-3.399435	-4.256975	 0.117892	-1.694328	 20.719300	 0.758163	-0.422610	 1.425238	 9.146151	-8.209345	 18.089590	 0.786612	 89.678790	 9.062685	 54.962440	 79.533830	 117.839100	 6.949009	 16.438630	 9.462729	 18.208060	 24.391990	-177.389600	-8.831868	-175.013600	-0.016568	-3.219298	-3.883214	 0.855641	-4.408458	 1.686657	 177.319100	-9.036760	-172.642800	 1.241053	-1.979778	-4.426968	-0.113596	 0.528879	-4.788302	 158.169100	-26.491550	 168.876600	 1.386256	 2.855342	 4.611974	 0.094532	 2.019469	-1.637273	 166.453600	-25.945450	 166.554900	 2.005292	-2.321953	 9.005940	-2.970803	-0.971437	-2.537858	 7.912983	 55.262230	 25.182600	 0.027068	 3.778531	-1.271253	 1.596345	-1.114234	-1.334432
 0.045856	 0.885627	-0.612596	-138.571500	-70.358000	 132.934500	-35.769030	 3.714003	 175.554900	-61.483920	-5.526618	 11.042650	 30.578330	 17.014360	-13.781000	 62.519460	-3.188659	 0.006148	-13.750070	-1.479198	-176.761300	-22.567080	-1.668615	 3.803914	 45.242930	 20.579150	-14.616780	 62.519680	-0.000152	 0.006819	 4.902136	 0.017393	 0.202796	-7.288613	-0.044277	 6.003084	-17.352180	-0.847073	 0.059906	 18.089590	 0.786613	-90.318680	 9.491684	-11.583160	-52.320530	 80.465400	 14.449400	-49.821820	-6.134737	-15.818410	-30.996970	 0.400901	 11.965310	-4.748454	 0.477874	 0.266074	 1.215439	-0.546671	 0.281770	 7.091043	-6.028159	 6.440647	 2.122423	 1.345341	-3.951414	-7.945199	-1.888770	-2.723091	 6.121307	-24.889980	-9.392361	-17.565870	-2.647219	 2.127349	 1.980443	 0.159782	-1.149520	 1.319157	-14.969960	-7.591256	-10.839200	-0.178069	 2.674636	-6.625014	 0.386537	-3.212840	 3.918352	 164.427200	 55.870460	-127.805100	 6.634563	-0.414953	-3.399435	-4.256975	 0.117892	-1.694328	 27.862930	 0.504834	-1.462587	-2.658540	 3.547006	-6.910927	 18.089590	 0.786612	 89.678790	 10.629290	 31.531800	 72.237830	 111.404200	 2.659964	 11.636680	 29.542890	 20.301580	 19.090720	-177.389600	-8.831868	-175.013600	-0.016568	-3.219298	-3.883214	 0.855641	-4.408458	 1.686657	 177.319100	-9.036760	-172.642800	 1.241053	-1.979778	-4.426968	-0.113596	 0.528879	-4.788302	 158.169100	-26.491550	 168.876600	 1.386256	 2.855342	 4.611974	 0.094532	 2.019469	-1.637273	 166.453600	-25.945450	 166.554900	 2.005292	-2.321953	 9.005940	-2.970803	-0.971437	-2.537858	 7.912983	 55.262230	 25.182600	 0.027068	 3.778531	-1.271253	 1.596345	-1.114234	-1.334432
